<?xml version="1.0" standalone="no"?>
<!DOCTYPE svg PUBLIC "-//W3C//DTD SVG 20010904//EN"
 "http://www.w3.org/TR/2001/REC-SVG-20010904/DTD/svg10.dtd">
<svg version="1.0" xmlns="http://www.w3.org/2000/svg"
 width="512.000000pt" height="512.000000pt" viewBox="0 0 512.000000 512.000000"
 preserveAspectRatio="xMidYMid meet">
<metadata>
Created by potrace 1.14, written by Peter Selinger 2001-2017
</metadata>
<g transform="translate(0.000000,512.000000) scale(0.100000,-0.100000)"
fill="#000000" stroke="none">
<path d="M2506 4926 c-64 -34 -80 -75 -78 -215 1 -144 12 -175 76 -216 26 -17
52 -20 215 -21 102 -1 188 -3 191 -3 3 -1 5 -84 5 -185 l0 -184 -75 -12 c-232
-37 -524 -144 -702 -256 -20 -13 -42 -24 -47 -24 -5 0 -46 43 -92 96 l-82 96
63 57 c54 49 63 62 62 90 0 18 -7 40 -15 50 -186 220 -199 231 -245 213 -16
-5 -266 -212 -336 -277 -6 -5 -58 -50 -116 -100 -149 -128 -159 -138 -166
-172 -5 -27 2 -40 71 -122 150 -179 162 -183 258 -101 56 48 77 59 77 43 0 -5
19 -28 41 -52 22 -24 56 -63 75 -87 l35 -43 -28 -32 c-15 -17 -35 -39 -43 -47
-16 -16 -53 -64 -82 -104 -9 -12 -30 -41 -46 -63 l-28 -40 -268 0 -268 -1 -24
-27 c-37 -43 -32 -77 15 -110 20 -13 57 -16 234 -17 116 0 212 -2 214 -3 2 -3
-77 -190 -96 -227 -7 -13 -67 -15 -431 -17 l-423 -2 -25 -24 c-33 -33 -32 -74
2 -104 l27 -23 399 0 398 0 -14 -52 c-7 -29 -18 -86 -25 -127 -6 -42 -13 -83
-14 -91 -2 -8 -4 -25 -4 -37 l-1 -23 -570 0 -571 0 -24 -25 c-14 -13 -25 -31
-25 -39 0 -29 19 -65 41 -76 15 -9 177 -12 580 -12 l559 0 1 -82 c0 -44 2 -90
4 -101 1 -11 6 -48 9 -82 l6 -63 -408 0 c-307 0 -413 -3 -432 -13 -53 -27 -48
-113 8 -132 16 -6 203 -10 444 -9 l416 0 12 -40 c7 -23 24 -76 37 -119 14 -43
23 -80 20 -83 -2 -2 -95 -5 -207 -4 l-202 0 -29 -29 c-20 -21 -28 -37 -25 -53
3 -13 5 -26 5 -30 1 -4 13 -15 28 -25 23 -15 55 -18 264 -18 131 0 240 -3 242
-5 2 -3 23 -41 47 -85 106 -200 244 -374 411 -523 118 -105 126 -111 243 -187
215 -140 502 -255 726 -290 25 -4 53 -9 62 -10 66 -13 172 -20 288 -19 117 0
170 4 290 19 14 1 63 11 110 20 646 132 1194 595 1433 1211 49 125 101 303 98
336 0 2 4 21 9 43 24 103 33 412 17 564 -41 376 -210 761 -462 1056 -66 76
-74 90 -63 105 37 49 133 160 139 160 4 0 14 -6 21 -13 102 -97 146 -110 196
-54 100 109 170 195 175 217 6 25 -23 90 -40 90 -5 0 -24 15 -43 33 -19 18
-80 70 -135 117 -55 47 -102 87 -105 90 -26 29 -281 239 -297 244 -37 12 -67
-10 -148 -105 -44 -52 -82 -96 -86 -99 -12 -10 -29 -49 -29 -67 0 -10 30 -46
66 -80 l67 -63 -34 -38 c-19 -21 -56 -63 -83 -94 l-48 -57 -37 24 c-190 119
-513 233 -737 259 -11 2 -25 5 -30 9 -7 4 -12 339 -5 367 0 3 82 5 182 4 205
-1 235 7 277 71 20 31 22 47 22 161 0 146 -11 181 -69 216 l-36 23 -609 1
c-597 0 -610 0 -650 -20z"/>
</g>
</svg>
